<svg id="Group_42" data-name="Group 42" xmlns="http://www.w3.org/2000/svg" width="32" height="32" viewBox="0 0 32 32">
  <g id="Group_41" data-name="Group 41">
    <path id="Path_318" data-name="Path 318" d="M148.436,251.769h6.191a.989.989,0,0,1,.988.988v.9a.988.988,0,0,1-.988.988h-6.191v6.191a.989.989,0,0,1-.988.988h-.9a.988.988,0,0,1-.988-.988v-6.191h-6.191a.989.989,0,0,1-.988-.988v-.9a.988.988,0,0,1,.988-.988h6.191v-6.191a.989.989,0,0,1,.988-.988h.9a.988.988,0,0,1,.988.988ZM131,253a16,16,0,1,1,16,16A16,16,0,0,1,131,253Z" transform="translate(-131 -237)" fill="#f2b825" fill-rule="evenodd"/>
  </g>
</svg>
