<svg xmlns="http://www.w3.org/2000/svg" width="32" height="28.444" viewBox="0 0 32 28.444">
  <defs>
    <style>
      .cls-1 {
        fill: #545871;
      }
    </style>
  </defs>
  <g id="Bookmark" transform="translate(1)">
    <path id="Exclusion_1" data-name="Exclusion 1" class="cls-1" d="M30.069,28.445A1.915,1.915,0,1,1,32,26.53,1.925,1.925,0,0,1,30.069,28.445Zm-28.138,0A1.915,1.915,0,1,1,3.862,26.53,1.925,1.925,0,0,1,1.931,28.445Zm28.138-4.923A1.915,1.915,0,1,1,32,21.607,1.925,1.925,0,0,1,30.069,23.522Zm-4.69,0a1.915,1.915,0,1,1,1.931-1.915A1.925,1.925,0,0,1,25.379,23.522Zm-18.758,0a1.915,1.915,0,1,1,1.931-1.915A1.925,1.925,0,0,1,6.621,23.522Zm-4.69,0a1.915,1.915,0,1,1,1.931-1.915A1.925,1.925,0,0,1,1.931,23.522ZM30.069,18.6A1.915,1.915,0,1,1,32,16.684,1.925,1.925,0,0,1,30.069,18.6Zm-4.69,0a1.915,1.915,0,1,1,1.931-1.915A1.925,1.925,0,0,1,25.379,18.6Zm-4.69,0a1.915,1.915,0,1,1,1.931-1.915A1.925,1.925,0,0,1,20.69,18.6Zm-9.379,0a1.915,1.915,0,1,1,1.931-1.915A1.925,1.925,0,0,1,11.31,18.6Zm-4.69,0a1.915,1.915,0,1,1,1.931-1.915A1.925,1.925,0,0,1,6.621,18.6Zm-4.69,0a1.915,1.915,0,1,1,1.931-1.915A1.925,1.925,0,0,1,1.931,18.6Zm28.138-4.923A1.915,1.915,0,1,1,32,11.761,1.925,1.925,0,0,1,30.069,13.675Zm-4.69,0a1.915,1.915,0,1,1,1.931-1.915A1.925,1.925,0,0,1,25.379,13.675Zm-4.69,0a1.915,1.915,0,1,1,1.931-1.915A1.925,1.925,0,0,1,20.69,13.675Zm-4.69,0a1.915,1.915,0,1,1,1.931-1.915A1.925,1.925,0,0,1,16,13.675Zm-4.689,0a1.915,1.915,0,1,1,1.931-1.915A1.925,1.925,0,0,1,11.31,13.675Zm-4.69,0a1.915,1.915,0,1,1,1.931-1.915A1.925,1.925,0,0,1,6.621,13.675Zm-4.69,0a1.915,1.915,0,1,1,1.931-1.915A1.925,1.925,0,0,1,1.931,13.675ZM30.069,8.752A1.915,1.915,0,1,1,32,6.838,1.925,1.925,0,0,1,30.069,8.752Zm-4.69,0A1.915,1.915,0,1,1,27.31,6.838,1.925,1.925,0,0,1,25.379,8.752Zm-4.69,0a1.915,1.915,0,1,1,1.931-1.915A1.925,1.925,0,0,1,20.69,8.752Zm-4.69,0a1.915,1.915,0,1,1,1.931-1.915A1.925,1.925,0,0,1,16,8.752Zm-4.689,0a1.915,1.915,0,1,1,1.931-1.915A1.925,1.925,0,0,1,11.31,8.752Zm-4.69,0A1.915,1.915,0,1,1,8.552,6.838,1.925,1.925,0,0,1,6.621,8.752Zm-4.69,0A1.915,1.915,0,1,1,3.862,6.838,1.925,1.925,0,0,1,1.931,8.752ZM30.069,3.829a1.925,1.925,0,0,1-1.931-1.915,1.931,1.931,0,0,1,3.862,0A1.925,1.925,0,0,1,30.069,3.829Zm-4.69,0a1.925,1.925,0,0,1-1.931-1.915,1.931,1.931,0,0,1,3.862,0A1.925,1.925,0,0,1,25.379,3.829Zm-4.69,0a1.925,1.925,0,0,1-1.931-1.915,1.931,1.931,0,0,1,3.862,0A1.925,1.925,0,0,1,20.69,3.829Zm-4.69,0a1.925,1.925,0,0,1-1.931-1.915,1.931,1.931,0,0,1,3.862,0A1.925,1.925,0,0,1,16,3.829Zm-4.689,0A1.925,1.925,0,0,1,9.379,1.915a1.931,1.931,0,0,1,3.862,0A1.925,1.925,0,0,1,11.31,3.829Zm-4.69,0A1.925,1.925,0,0,1,4.69,1.915a1.931,1.931,0,0,1,3.862,0A1.925,1.925,0,0,1,6.621,3.829Zm-4.69,0A1.925,1.925,0,0,1,0,1.915a1.931,1.931,0,0,1,3.862,0A1.925,1.925,0,0,1,1.931,3.829Z" transform="translate(-1 0)"/>
  </g>
</svg>
