<svg id="noun_Business_1852029" xmlns="http://www.w3.org/2000/svg" width="143.03" height="136.803" viewBox="0 0 143.03 136.803">
  <defs>
    <style>
      .cls-1 {
        fill: #f2b825;
      }
    </style>
  </defs>
  <g id="Group_353" data-name="Group 353">
    <path id="Path_331" data-name="Path 331" class="cls-1" d="M243.828,117.055h5.243a2.028,2.028,0,0,0,0-4.055h-5.243a2.028,2.028,0,0,0,0,4.055Z" transform="translate(-174.427 -86.004)"/>
    <path id="Path_332" data-name="Path 332" class="cls-1" d="M243.828,156.155h5.243a2.028,2.028,0,0,0,0-4.055h-5.243a2.028,2.028,0,0,0,0,4.055Z" transform="translate(-174.427 -113.779)"/>
    <path id="Path_333" data-name="Path 333" class="cls-1" d="M293.828,117.055h5.243a2.028,2.028,0,1,0,0-4.055h-5.243a2.028,2.028,0,0,0,0,4.055Z" transform="translate(-209.944 -86.004)"/>
    <path id="Path_334" data-name="Path 334" class="cls-1" d="M293.828,156.155h5.243a2.028,2.028,0,1,0,0-4.055h-5.243a2.028,2.028,0,0,0,0,4.055Z" transform="translate(-209.944 -113.779)"/>
    <path id="Path_335" data-name="Path 335" class="cls-1" d="M193.828,117.055h5.243a2.028,2.028,0,0,0,0-4.055h-5.243a2.028,2.028,0,0,0,0,4.055Z" transform="translate(-138.909 -86.004)"/>
    <path id="Path_336" data-name="Path 336" class="cls-1" d="M193.828,156.155h5.243a2.028,2.028,0,0,0,0-4.055h-5.243a2.028,2.028,0,0,0,0,4.055Z" transform="translate(-138.909 -113.779)"/>
    <path id="Path_337" data-name="Path 337" class="cls-1" d="M243.828,77.055h5.243a2.028,2.028,0,0,0,0-4.055h-5.243a2.028,2.028,0,0,0,0,4.055Z" transform="translate(-174.427 -57.59)"/>
    <path id="Path_338" data-name="Path 338" class="cls-1" d="M293.828,77.055h5.243a2.028,2.028,0,1,0,0-4.055h-5.243a2.028,2.028,0,0,0,0,4.055Z" transform="translate(-209.944 -57.59)"/>
    <path id="Path_339" data-name="Path 339" class="cls-1" d="M193.828,77.055h5.243a2.028,2.028,0,0,0,0-4.055h-5.243a2.028,2.028,0,0,0,0,4.055Z" transform="translate(-138.909 -57.59)"/>
    <path id="Path_340" data-name="Path 340" class="cls-1" d="M243.828,196.155h5.243a2.028,2.028,0,0,0,0-4.055h-5.243a2.028,2.028,0,0,0,0,4.055Z" transform="translate(-174.427 -142.193)"/>
    <path id="Path_341" data-name="Path 341" class="cls-1" d="M293.828,196.155h5.243a2.028,2.028,0,1,0,0-4.055h-5.243a2.028,2.028,0,0,0,0,4.055Z" transform="translate(-209.944 -142.193)"/>
    <path id="Path_342" data-name="Path 342" class="cls-1" d="M193.828,196.155h5.243a2.028,2.028,0,0,0,0-4.055h-5.243a2.028,2.028,0,0,0,0,4.055Z" transform="translate(-138.909 -142.193)"/>
    <path id="Path_343" data-name="Path 343" class="cls-1" d="M243.828,236.155h5.243a2.028,2.028,0,0,0,0-4.055h-5.243a2.028,2.028,0,0,0,0,4.055Z" transform="translate(-174.427 -170.607)"/>
    <path id="Path_344" data-name="Path 344" class="cls-1" d="M293.828,236.155h5.243a2.028,2.028,0,1,0,0-4.055h-5.243a2.028,2.028,0,0,0,0,4.055Z" transform="translate(-209.944 -170.607)"/>
    <path id="Path_345" data-name="Path 345" class="cls-1" d="M201.1,234.128a2.015,2.015,0,0,0-2.028-2.028h-5.243a2.028,2.028,0,0,0,0,4.055h5.243A2.015,2.015,0,0,0,201.1,234.128Z" transform="translate(-138.909 -170.607)"/>
    <path id="Path_346" data-name="Path 346" class="cls-1" d="M358.928,117.055h12.8a2.028,2.028,0,0,0,0-4.055h-12.8a2.028,2.028,0,1,0,0,4.055Z" transform="translate(-256.188 -86.004)"/>
    <path id="Path_347" data-name="Path 347" class="cls-1" d="M358.928,156.155h12.8a2.028,2.028,0,0,0,0-4.055h-12.8a2.028,2.028,0,1,0,0,4.055Z" transform="translate(-256.188 -113.779)"/>
    <path id="Path_348" data-name="Path 348" class="cls-1" d="M358.928,196.155h12.8a2.028,2.028,0,0,0,0-4.055h-12.8a2.028,2.028,0,1,0,0,4.055Z" transform="translate(-256.188 -142.193)"/>
    <path id="Path_349" data-name="Path 349" class="cls-1" d="M358.928,236.155h12.8a2.028,2.028,0,0,0,0-4.055h-12.8a2.028,2.028,0,1,0,0,4.055Z" transform="translate(-256.188 -170.607)"/>
    <path id="Path_350" data-name="Path 350" class="cls-1" d="M68.928,112.663H174.419a2.015,2.015,0,0,0,2.028-2.028v-72.5a2.015,2.015,0,0,0-2.028-2.028h-27V29.445a2.015,2.015,0,0,0-2.028-2.028h-5.069v-5.59A2.015,2.015,0,0,0,138.3,19.8H106.148a2.015,2.015,0,0,0-2.028,2.028v5.59H99.051a2.015,2.015,0,0,0-2.028,2.028V59.28h-28.1A2.015,2.015,0,0,0,66.9,61.307v49.328A2.015,2.015,0,0,0,68.928,112.663Zm94.774-4.055h-8.747V95.225H163.7Zm8.69-68.445v68.445h-4.634V93.2a2.015,2.015,0,0,0-2.028-2.028h-12.8A2.015,2.015,0,0,0,150.9,93.2v15.41h-3.476V40.163Zm-84,68.445H79.645V95.225h8.747Zm38.813,0H116.344V95.225h10.862Zm-19.03-84.752h28.067v3.563H108.175V23.855Zm-7.1,7.618h42.289v77.134H131.261V93.2a2.015,2.015,0,0,0-2.028-2.028H114.316a2.015,2.015,0,0,0-2.028,2.028v15.41h-11.21V31.473ZM70.955,63.335H97.024v45.273H92.447V93.2A2.015,2.015,0,0,0,90.42,91.17h-12.8A2.015,2.015,0,0,0,75.59,93.2v15.41H70.955Z" transform="translate(-50.187 -19.8)"/>
    <path id="Path_351" data-name="Path 351" class="cls-1" d="M98.928,196.155h12.8a2.028,2.028,0,1,0,0-4.055h-12.8a2.028,2.028,0,0,0,0,4.055Z" transform="translate(-71.497 -142.193)"/>
    <path id="Path_352" data-name="Path 352" class="cls-1" d="M98.928,236.155h12.8a2.028,2.028,0,0,0,0-4.055h-12.8a2.028,2.028,0,0,0,0,4.055Z" transform="translate(-71.497 -170.607)"/>
    <path id="Path_353" data-name="Path 353" class="cls-1" d="M241.541,411.262a2.046,2.046,0,0,0-2.868,0l-2.172,2.172-2.172-2.172a2.028,2.028,0,1,0-2.868,2.868l2.172,2.172-2.172,2.172a2.046,2.046,0,0,0,0,2.868,1.993,1.993,0,0,0,1.419.579,2.069,2.069,0,0,0,1.419-.579l2.172-2.172,2.172,2.172a2.064,2.064,0,0,0,2.868,0,2.046,2.046,0,0,0,0-2.868L239.34,416.3l2.172-2.172A2.019,2.019,0,0,0,241.541,411.262Z" transform="translate(-166.666 -297.457)"/>
    <path id="Path_354" data-name="Path 354" class="cls-1" d="M55.952,411.314l-6.343,5.793-2.752-2.983a2.046,2.046,0,0,0-2.868-.116,2.02,2.02,0,0,0-.116,2.868l4.142,4.49a2.054,2.054,0,0,0,1.477.666,2,2,0,0,0,1.361-.521l7.821-7.154a2.02,2.02,0,0,0,.116-2.868A1.963,1.963,0,0,0,55.952,411.314Z" transform="translate(-33.446 -297.538)"/>
    <path id="Path_355" data-name="Path 355" class="cls-1" d="M134.272,368.1a17.963,17.963,0,0,0-17.611,14.483H96.675a17.949,17.949,0,0,0-35.222,0H44.769a17.892,17.892,0,1,0,.348,4.026H61.135a17.967,17.967,0,0,0,35.917,0h19.262A17.963,17.963,0,1,0,134.272,368.1ZM27.1,399.991a13.9,13.9,0,1,1,13.9-13.9A13.907,13.907,0,0,1,27.1,399.991Zm51.935,0a13.9,13.9,0,1,1,13.9-13.9A13.907,13.907,0,0,1,79.035,399.991Zm55.237,0a13.9,13.9,0,1,1,13.9-13.9A13.907,13.907,0,0,1,134.272,399.991Z" transform="translate(-9.2 -267.214)"/>
    <path id="Path_356" data-name="Path 356" class="cls-1" d="M425.978,411.338l-6.343,5.793-2.752-2.983A2.029,2.029,0,1,0,413.9,416.9l4.142,4.49a2.054,2.054,0,0,0,1.477.666,2,2,0,0,0,1.361-.521l7.821-7.154a2.02,2.02,0,0,0,.116-2.868A1.99,1.99,0,0,0,425.978,411.338Z" transform="translate(-296.3 -297.563)"/>
  </g>
</svg>
