<svg id="noun_Data_1115651" xmlns="http://www.w3.org/2000/svg" width="95.79" height="135.236" viewBox="0 0 95.79 135.236">
  <defs>
    <style>
      .cls-1 {
        fill: #f2b825;
      }
    </style>
  </defs>
  <g id="Group_350" data-name="Group 350">
    <g id="Group_333" data-name="Group 333" transform="translate(0 0.002)">
      <g id="Group_332" data-name="Group 332">
        <path id="Path_325" data-name="Path 325" class="cls-1" d="M96.338,137.233H17.452A8.461,8.461,0,0,1,9,128.781V23.375L30.372,2H96.338a8.461,8.461,0,0,1,8.452,8.452V128.781A8.461,8.461,0,0,1,96.338,137.233ZM14.635,25.709V128.781a2.819,2.819,0,0,0,2.817,2.817H96.338a2.819,2.819,0,0,0,2.817-2.817V10.452a2.819,2.819,0,0,0-2.817-2.817H32.705Z" transform="translate(-9 -2)"/>
      </g>
    </g>
    <g id="Group_335" data-name="Group 335" transform="translate(0.086 0)">
      <g id="Group_334" data-name="Group 334">
        <path id="Path_326" data-name="Path 326" class="cls-1" d="M31.541,27.361H11.82a2.661,2.661,0,0,1-2.6-1.739c-.5-1.2.611-3.07.611-3.07L29.549,2.827a2.817,2.817,0,0,1,4.809,1.992V24.544A2.816,2.816,0,0,1,31.541,27.361Zm-12.92-5.635h10.1V11.621Z" transform="translate(-9.088 -2)"/>
      </g>
    </g>
    <g id="Group_337" data-name="Group 337" transform="translate(56.342 73.24)">
      <g id="Group_336" data-name="Group 336">
        <path id="Path_327" data-name="Path 327" class="cls-1" d="M40.268,50.534A11.3,11.3,0,0,1,29,39.265,11.269,11.269,0,1,1,40.268,50.534Zm0-16.9a5.655,5.655,0,0,0-4.741,2.606,5.628,5.628,0,1,0,4.741-2.606Z" transform="translate(-28.998 -27.996)"/>
      </g>
    </g>
    <g id="Group_339" data-name="Group 339" transform="translate(16.904 98.61)">
      <g id="Group_338" data-name="Group 338">
        <path id="Path_328" data-name="Path 328" class="cls-1" d="M26.27,59.539A11.269,11.269,0,1,1,37.539,48.27,11.281,11.281,0,0,1,26.27,59.539Zm0-16.9A5.635,5.635,0,1,0,31.9,48.27,5.642,5.642,0,0,0,26.27,42.635Z" transform="translate(-15 -37)"/>
      </g>
    </g>
    <g id="Group_341" data-name="Group 341" transform="translate(16.899 47.884)">
      <g id="Group_340" data-name="Group 340">
        <path id="Path_329" data-name="Path 329" class="cls-1" d="M26.268,41.534a11.306,11.306,0,1,1,9.47-5.186A11.281,11.281,0,0,1,26.268,41.534Zm0-16.9a5.635,5.635,0,0,0,0,11.269,5.635,5.635,0,0,0,0-11.269Z" transform="translate(-14.998 -18.996)"/>
      </g>
    </g>
    <g id="Group_343" data-name="Group 343" transform="translate(56.347 22.541)">
      <g id="Group_342" data-name="Group 342">
        <path id="Path_330" data-name="Path 330" class="cls-1" d="M40.27,32.539A11.269,11.269,0,1,1,51.539,21.27,11.281,11.281,0,0,1,40.27,32.539Zm0-16.9A5.635,5.635,0,1,0,45.9,21.27,5.642,5.642,0,0,0,40.27,15.635Z" transform="translate(-29 -10)"/>
      </g>
    </g>
    <g id="Group_345" data-name="Group 345" transform="translate(33.746 35.988)">
      <g id="Group_344" data-name="Group 344" transform="translate(0 0)">
        <rect id="Rectangle_450" data-name="Rectangle 450" class="cls-1" width="30.009" height="5.634" transform="matrix(0.841, -0.541, 0.541, 0.841, 0, 16.238)"/>
      </g>
    </g>
    <g id="Group_347" data-name="Group 347" transform="translate(33.746 86.7)">
      <g id="Group_346" data-name="Group 346" transform="translate(0 0)">
        <rect id="Rectangle_451" data-name="Rectangle 451" class="cls-1" width="30.009" height="5.634" transform="matrix(0.841, -0.541, 0.541, 0.841, 0, 16.238)"/>
      </g>
    </g>
    <g id="Group_349" data-name="Group 349" transform="translate(33.743 61.348)">
      <g id="Group_348" data-name="Group 348" transform="translate(0 0)">
        <rect id="Rectangle_452" data-name="Rectangle 452" class="cls-1" width="5.634" height="30.009" transform="translate(0 4.739) rotate(-57.266)"/>
      </g>
    </g>
  </g>
</svg>
