<svg id="Delete" xmlns="http://www.w3.org/2000/svg" width="30.744" height="32" viewBox="0 0 30.744 32">
  <defs>
    <style>
      .cls-1 {
        fill: #e84033;
      }
    </style>
  </defs>
  <path id="Exclusion_3" data-name="Exclusion 3" class="cls-1" d="M28.513,32a2.183,2.183,0,1,1,2.231-2.183A2.21,2.21,0,0,1,28.513,32Zm-5.257,0a2.183,2.183,0,1,1,2.232-2.183A2.21,2.21,0,0,1,23.256,32ZM7.976,32a2.183,2.183,0,1,1,2.231-2.183A2.21,2.21,0,0,1,7.976,32ZM2.232,32a2.183,2.183,0,1,1,0-4.364,2.183,2.183,0,1,1,0,4.364Zm26.281-5.528a2.182,2.182,0,1,1,2.231-2.182A2.21,2.21,0,0,1,28.513,26.473Zm-5.257,0a2.182,2.182,0,1,1,2.232-2.182A2.209,2.209,0,0,1,23.256,26.473Zm-15.28,0a2.182,2.182,0,1,1,2.231-2.182A2.21,2.21,0,0,1,7.976,26.473Zm-5.744,0a2.182,2.182,0,1,1,0-4.363,2.182,2.182,0,1,1,0,4.363ZM18,20.946a2.183,2.183,0,1,1,2.232-2.182A2.21,2.21,0,0,1,18,20.946Zm-5.256,0a2.183,2.183,0,1,1,2.231-2.182A2.21,2.21,0,0,1,12.744,20.946ZM18,15.418a2.182,2.182,0,1,1,2.232-2.182A2.209,2.209,0,0,1,18,15.418Zm-5.256,0a2.182,2.182,0,1,1,2.231-2.182A2.209,2.209,0,0,1,12.744,15.418ZM28.513,9.891a2.183,2.183,0,1,1,2.231-2.182A2.21,2.21,0,0,1,28.513,9.891Zm-5.257,0a2.183,2.183,0,1,1,2.232-2.182A2.209,2.209,0,0,1,23.256,9.891Zm-15.28,0a2.183,2.183,0,1,1,2.231-2.182A2.21,2.21,0,0,1,7.976,9.891Zm-5.744,0a2.183,2.183,0,1,1,0-4.364,2.183,2.183,0,1,1,0,4.364ZM28.513,4.363a2.21,2.21,0,0,1-2.232-2.182,2.232,2.232,0,0,1,4.463,0A2.209,2.209,0,0,1,28.513,4.363Zm-5.257,0a2.209,2.209,0,0,1-2.231-2.182,2.232,2.232,0,0,1,4.463,0A2.21,2.21,0,0,1,23.256,4.363Zm-15.28,0A2.21,2.21,0,0,1,5.744,2.182a2.232,2.232,0,0,1,4.463,0A2.209,2.209,0,0,1,7.976,4.363Zm-5.744,0A2.21,2.21,0,0,1,0,2.182,2.21,2.21,0,0,1,2.232,0,2.209,2.209,0,0,1,4.463,2.182,2.209,2.209,0,0,1,2.232,4.363Z"/>
</svg>
