<svg id="Green_Arrow" data-name="Green Arrow" xmlns="http://www.w3.org/2000/svg" width="32" height="27.294" viewBox="0 0 32 27.294">
  <path id="Exclusion_6" data-name="Exclusion 6" d="M30.118,27.294A1.882,1.882,0,1,1,32,25.412,1.884,1.884,0,0,1,30.118,27.294Zm-28.236,0a1.882,1.882,0,1,1,1.882-1.882A1.884,1.884,0,0,1,1.882,27.294Zm28.236-4.706A1.882,1.882,0,1,1,32,20.706,1.884,1.884,0,0,1,30.118,22.588Zm-4.706,0a1.882,1.882,0,1,1,1.882-1.882A1.884,1.884,0,0,1,25.412,22.588Zm-18.824,0a1.882,1.882,0,1,1,1.883-1.882A1.884,1.884,0,0,1,6.588,22.588Zm-4.706,0a1.882,1.882,0,1,1,1.882-1.882A1.884,1.884,0,0,1,1.882,22.588Zm28.236-4.706A1.882,1.882,0,1,1,32,16,1.884,1.884,0,0,1,30.118,17.882Zm-4.706,0A1.882,1.882,0,1,1,27.294,16,1.884,1.884,0,0,1,25.412,17.882Zm-4.706,0A1.882,1.882,0,1,1,22.588,16,1.884,1.884,0,0,1,20.706,17.882Zm-9.412,0A1.882,1.882,0,1,1,13.177,16,1.884,1.884,0,0,1,11.294,17.882Zm-4.706,0A1.882,1.882,0,1,1,8.471,16,1.884,1.884,0,0,1,6.588,17.882Zm-4.706,0A1.882,1.882,0,1,1,3.764,16,1.884,1.884,0,0,1,1.882,17.882Zm23.53-4.706a1.882,1.882,0,1,1,1.882-1.882A1.884,1.884,0,0,1,25.412,13.177Zm-4.706,0a1.882,1.882,0,1,1,1.883-1.882A1.884,1.884,0,0,1,20.706,13.177Zm-4.706,0a1.882,1.882,0,1,1,1.883-1.882A1.884,1.884,0,0,1,16,13.177Zm-4.706,0a1.882,1.882,0,1,1,1.883-1.882A1.884,1.884,0,0,1,11.294,13.177Zm-4.706,0a1.882,1.882,0,1,1,1.883-1.882A1.884,1.884,0,0,1,6.588,13.177ZM20.706,8.471a1.882,1.882,0,1,1,1.883-1.882A1.884,1.884,0,0,1,20.706,8.471ZM16,8.471a1.882,1.882,0,1,1,1.883-1.882A1.884,1.884,0,0,1,16,8.471Zm-4.706,0a1.882,1.882,0,1,1,1.883-1.882A1.884,1.884,0,0,1,11.294,8.471ZM16,3.765a1.882,1.882,0,1,1,1.883-1.883A1.884,1.884,0,0,1,16,3.765Z" fill="#00713d"/>
</svg>
