<svg id="Logo" xmlns="http://www.w3.org/2000/svg" width="44" height="53" viewBox="0 0 44 53">
  <defs>
    <style>
      .cls-1 {
        fill: #f2b825;
      }
    </style>
  </defs>
  <path id="Exclusion_4" data-name="Exclusion 4" class="cls-1" d="M18.207,53a3.073,3.073,0,1,1,3.035-3.072A3.057,3.057,0,0,1,18.207,53ZM3.034,53a3.073,3.073,0,0,1,0-6.145,3.073,3.073,0,0,1,0,6.145Zm22.759-7.681a3.073,3.073,0,1,1,3.034-3.072A3.057,3.057,0,0,1,25.793,45.319Zm-15.173,0a3.073,3.073,0,1,1,3.035-3.072A3.057,3.057,0,0,1,10.62,45.319ZM33.38,37.638a3.073,3.073,0,1,1,3.034-3.073A3.057,3.057,0,0,1,33.38,37.638Zm-15.173,0a3.073,3.073,0,1,1,3.035-3.073A3.057,3.057,0,0,1,18.207,37.638Zm22.759-7.681A3.073,3.073,0,1,1,44,26.884,3.057,3.057,0,0,1,40.966,29.957Zm-15.172,0a3.073,3.073,0,1,1,3.034-3.073A3.058,3.058,0,0,1,25.793,29.957Zm7.586-7.681A3.073,3.073,0,1,1,36.414,19.2,3.057,3.057,0,0,1,33.38,22.276Zm-15.173,0A3.073,3.073,0,1,1,21.241,19.2,3.057,3.057,0,0,1,18.207,22.276Zm7.587-7.681a3.073,3.073,0,1,1,3.034-3.073A3.057,3.057,0,0,1,25.793,14.595ZM10.62,13.826a3.072,3.072,0,1,1,3.035-3.072A3.057,3.057,0,0,1,10.62,13.826Zm7.586-6.913a3.072,3.072,0,1,1,3.035-3.072A3.057,3.057,0,0,1,18.207,6.913ZM3.034,6.145A3.057,3.057,0,0,1,0,3.073,3.057,3.057,0,0,1,3.034,0a3.073,3.073,0,0,1,0,6.145Z"/>
  <circle id="Ellipse_54" data-name="Ellipse 54" class="cls-1" cx="3" cy="3" r="3" transform="translate(23 24)"/>
</svg>
