<svg xmlns="http://www.w3.org/2000/svg" width="39" height="47" viewBox="0 0 39 47">
  <defs>
    <style>
      .cls-1 {
        fill: #545871;
      }
    </style>
  </defs>
  <g id="Logomark" transform="translate(-16 -8)">
    <g id="Logo" transform="translate(16 8)">
      <path id="Exclusion_4" data-name="Exclusion 4" class="cls-1" d="M16.138,47a2.725,2.725,0,1,1,2.69-2.724A2.71,2.71,0,0,1,16.138,47ZM2.689,47a2.725,2.725,0,0,1,0-5.449,2.725,2.725,0,0,1,0,5.449Zm20.173-6.811a2.725,2.725,0,1,1,2.689-2.724A2.71,2.71,0,0,1,22.862,40.189Zm-13.449,0a2.725,2.725,0,1,1,2.69-2.724A2.71,2.71,0,0,1,9.413,40.189Zm20.173-6.812a2.725,2.725,0,1,1,2.689-2.725A2.711,2.711,0,0,1,29.586,33.377Zm-13.449,0a2.725,2.725,0,1,1,2.69-2.725A2.71,2.71,0,0,1,16.138,33.377Zm20.173-6.811A2.725,2.725,0,1,1,39,23.841,2.711,2.711,0,0,1,36.311,26.566Zm-13.448,0a2.725,2.725,0,1,1,2.689-2.725A2.711,2.711,0,0,1,22.862,26.566Zm6.724-6.811a2.725,2.725,0,1,1,2.689-2.725A2.711,2.711,0,0,1,29.586,19.754Zm-13.449,0a2.725,2.725,0,1,1,2.69-2.725A2.71,2.71,0,0,1,16.138,19.754Zm6.725-6.811a2.725,2.725,0,1,1,2.689-2.725A2.711,2.711,0,0,1,22.862,12.943ZM9.413,12.261A2.725,2.725,0,1,1,12.1,9.536,2.71,2.71,0,0,1,9.413,12.261Zm6.724-6.13a2.725,2.725,0,1,1,2.69-2.724A2.71,2.71,0,0,1,16.138,6.13ZM2.689,5.449A2.71,2.71,0,0,1,0,2.725,2.71,2.71,0,0,1,2.689,0a2.711,2.711,0,0,1,2.69,2.725A2.71,2.71,0,0,1,2.689,5.449Z"/>
      <circle id="Ellipse_54" data-name="Ellipse 54" class="cls-1" cx="3" cy="3" r="3" transform="translate(20 21)"/>
    </g>
  </g>
</svg>
