<svg id="Logo_Text" data-name="Logo+Text" xmlns="http://www.w3.org/2000/svg" width="311.5" height="93" viewBox="0 0 311.5 93">
  <defs>
    <style>
      .cls-1, .cls-3 {
        fill: #f2b825;
      }

      .cls-1 {
        font-size: 65px;
        font-family: Verdana;
      }

      .cls-2 {
        fill: #ebedea;
        font-family: ShreeDev0714, "Shree Devanagari 714";
      }
    </style>
  </defs>
  <g id="Logo_Text-2" data-name="Logo+Text" transform="translate(56.5)">
    <text id="TKRtape" class="cls-1" transform="translate(0 65)"><tspan x="0" y="0">TKR</tspan><tspan class="cls-2" y="0">tape</tspan></text>
  </g>
  <g id="Group_327" data-name="Group 327" transform="translate(0 6)">
    <circle id="Ellipse_46" data-name="Ellipse 46" class="cls-3" cx="4" cy="4" r="4" transform="translate(0 61)"/>
    <circle id="Ellipse_48" data-name="Ellipse 48" class="cls-3" cx="4" cy="4" r="4" transform="translate(20 61)"/>
    <circle id="Ellipse_49" data-name="Ellipse 49" class="cls-3" cx="4" cy="4" r="4" transform="translate(10 51)"/>
    <circle id="Ellipse_51" data-name="Ellipse 51" class="cls-3" cx="4" cy="4" r="4" transform="translate(30 51)"/>
    <circle id="Ellipse_52" data-name="Ellipse 52" class="cls-3" cx="4" cy="4" r="4" transform="translate(20 41)"/>
    <circle id="Ellipse_54" data-name="Ellipse 54" class="cls-3" cx="4" cy="4" r="4" transform="translate(30 31)"/>
    <circle id="Ellipse_56" data-name="Ellipse 56" class="cls-3" cx="4" cy="4" r="4" transform="translate(40 41)"/>
    <circle id="Ellipse_57" data-name="Ellipse 57" class="cls-3" cx="4" cy="4" r="4" transform="translate(50 31)"/>
    <circle id="Ellipse_59" data-name="Ellipse 59" class="cls-3" cx="4" cy="4" r="4" transform="translate(40 21)"/>
    <circle id="Ellipse_60" data-name="Ellipse 60" class="cls-3" cx="4" cy="4" r="4" transform="translate(20 21)"/>
    <circle id="Ellipse_61" data-name="Ellipse 61" class="cls-3" cx="4" cy="4" r="4" transform="translate(30 11)"/>
    <circle id="Ellipse_62" data-name="Ellipse 62" class="cls-3" cx="4" cy="4" r="4" transform="translate(10 10)"/>
    <circle id="Ellipse_63" data-name="Ellipse 63" class="cls-3" cx="4" cy="4" r="4" transform="translate(20 1)"/>
    <circle id="Ellipse_65" data-name="Ellipse 65" class="cls-3" cx="4" cy="4" r="4" transform="translate(0 0)"/>
    <circle id="Ellipse_129" data-name="Ellipse 129" class="cls-3" cx="4" cy="4" r="4" transform="translate(30 31)"/>
  </g>
</svg>
