<svg id="noun_Natural_Language_Processing_2475102" data-name="noun_Natural Language Processing_2475102" xmlns="http://www.w3.org/2000/svg" width="134" height="134" viewBox="0 0 134 134">
  <defs>
    <style>
      .cls-1 {
        fill: #f2b825;
      }
    </style>
  </defs>
  <path id="Path_320" data-name="Path 320" class="cls-1" d="M35,30v4.467A11.179,11.179,0,0,1,46.167,45.633h4.467A15.652,15.652,0,0,0,35,30Z" transform="translate(38.7 32.533)"/>
  <path id="Path_321" data-name="Path 321" class="cls-1" d="M26,29v4.467a6.708,6.708,0,0,1,6.7,6.7h4.467A11.179,11.179,0,0,0,26,29Z" transform="translate(27.6 31.3)"/>
  <path id="Path_322" data-name="Path 322" class="cls-1" d="M20,45.167h4.467a6.708,6.708,0,0,1,6.7-6.7V34A11.179,11.179,0,0,0,20,45.167Z" transform="translate(20.2 37.467)"/>
  <path id="Path_323" data-name="Path 323" class="cls-1" d="M128.646,46.012a2.224,2.224,0,0,0,.654-1.579v-9.25a8.933,8.933,0,1,0-4.467,0v8.326l-6.7,6.7V39.967a2.224,2.224,0,0,0-.654-1.579l-6.046-6.046V19.55a8.933,8.933,0,1,0-4.467,0V32.342l-6.046,6.046a2.224,2.224,0,0,0-.654,1.579V58c-.246.031-.489.065-.733.107a17.763,17.763,0,0,0-2.148.482c-.013,0-.029,0-.045.009a20.148,20.148,0,0,0-5.876-6.142L91.5,52.4a20.043,20.043,0,0,0-6.135-2.8c-.047-.013-.094-.025-.141-.036a19.873,19.873,0,0,0-2.312-.462c-.069-.009-.136-.022-.205-.033a19.875,19.875,0,0,0-2.475-.163c-.022,0-.045,0-.067,0V45.358l8.279-8.279A2.224,2.224,0,0,0,89.1,35.5V24.016a8.933,8.933,0,1,0-4.467,0V34.575l-8.279,8.279a2.224,2.224,0,0,0-.654,1.579v4.992a19.982,19.982,0,0,0-4.042,1.382l-.138.065a20.336,20.336,0,0,0-2.53,1.42,20.19,20.19,0,0,0-6.689-2.83V37.416a8.933,8.933,0,1,0-4.467,0V48.9A19.918,19.918,0,0,0,48.9,51.064V35.5a2.224,2.224,0,0,0-.654-1.579l-8.279-8.279V19.55a8.933,8.933,0,1,0-4.467,0V34.575L24.333,45.742,13.167,34.575V28.483a8.933,8.933,0,1,0-4.467,0V35.5a2.224,2.224,0,0,0,.654,1.579l2.888,2.888L4.888,47.321A2.224,2.224,0,0,0,4.233,48.9V82.726A17.833,17.833,0,0,0,19.867,109.2H77.933v2.233A11.179,11.179,0,0,0,89.1,122.6h4.467a13.414,13.414,0,0,0,13.4,13.4,2.233,2.233,0,0,0,2.233-2.233V122.374a11.186,11.186,0,0,0,8.933-10.941V109.2a17.867,17.867,0,0,0,2.108-35.608,17.738,17.738,0,0,0-2.108-6.508V56.525ZM122.6,26.567a4.467,4.467,0,1,1,4.467,4.467A4.471,4.471,0,0,1,122.6,26.567ZM82.4,15.4a4.467,4.467,0,1,1,4.467,4.467A4.471,4.471,0,0,1,82.4,15.4ZM55.6,28.8a4.467,4.467,0,1,1,4.467,4.467A4.471,4.471,0,0,1,55.6,28.8Zm49.133-17.867A4.467,4.467,0,1,1,109.2,15.4,4.471,4.471,0,0,1,104.733,10.933ZM109.2,36.425l4.467,4.467V61.76c-.1-.078-.2-.143-.3-.219-.163-.125-.331-.246-.5-.366-.284-.2-.57-.4-.864-.587-.188-.118-.38-.226-.572-.337-.281-.163-.561-.326-.849-.473-.255-.13-.516-.243-.777-.36-.235-.1-.467-.219-.706-.313-.411-.163-.833-.306-1.257-.44-.1-.029-.19-.069-.286-.1a17.674,17.674,0,0,0-2.827-.578v-17.1ZM33.267,10.933A4.467,4.467,0,1,1,37.733,15.4,4.471,4.471,0,0,1,33.267,10.933Zm6.046,26.146a2.224,2.224,0,0,0,.654-1.579V31.958l4.467,4.467V54.1a20.1,20.1,0,0,0-3.774,4.493c-.013,0-.029,0-.045-.009a17.763,17.763,0,0,0-2.148-.482c-.248-.042-.5-.076-.748-.107a18.339,18.339,0,0,0-1.916-.141c-.1,0-.2-.02-.3-.02a17.97,17.97,0,0,0-2.233.156V55.6a2.224,2.224,0,0,0-.654-1.579L27.491,48.9ZM6.467,19.867a4.467,4.467,0,1,1,4.467,4.467A4.471,4.471,0,0,1,6.467,19.867ZM15.4,43.125l13.4,13.4v2.613c-.208.083-.406.188-.61.279-.261.118-.525.23-.777.36-.288.145-.567.31-.849.473-.192.112-.384.219-.572.337-.293.185-.578.384-.864.587-.167.121-.335.239-.5.366-.277.214-.549.435-.817.668-.161.138-.315.281-.471.424s-.324.279-.478.431l.018.018A17.81,17.81,0,0,0,17.754,73.59c-.339.04-.67.107-1,.165-.13.022-.259.038-.386.065-.422.085-.833.19-1.244.3-.141.038-.284.069-.424.112-.371.112-.73.246-1.09.38-.181.067-.362.123-.54.2-.266.109-.518.239-.777.36a17.718,17.718,0,0,0-3.1,1.86c-.121.089-.246.174-.364.268-.038.036-.08.06-.121.094V49.825Zm89.333,88.125a8.948,8.948,0,0,1-6.7-8.65h6.7Zm8.933-19.816a6.708,6.708,0,0,1-6.7,6.7H89.1a6.708,6.708,0,0,1-6.7-6.7V109.2h31.267Zm17.867-20.1a13.413,13.413,0,0,1-13.4,13.4H104.579a17.78,17.78,0,0,0-4.257-9.483,6.686,6.686,0,0,1,6.644-6.151V84.633a11.152,11.152,0,0,0-10.443,7.323A17.743,17.743,0,0,0,86.867,89.1v4.467a13.413,13.413,0,0,1,13.2,11.167H68.846a17.78,17.78,0,0,0-4.257-9.483,8.918,8.918,0,0,1,8.878-8.384V82.4a13.42,13.42,0,0,0-12.81,9.476A17.736,17.736,0,0,0,51.133,89.1v4.467a13.413,13.413,0,0,1,13.2,11.167H19.867A13.4,13.4,0,0,1,12.423,80.2c.078-.054.165-.1.246-.15a13.235,13.235,0,0,1,2.1-1.1c.063-.027.13-.045.192-.069a13.248,13.248,0,0,1,2.334-.69c.02,0,.04,0,.06-.009A13.4,13.4,0,0,1,29.345,81.86L32.5,78.7a17.755,17.755,0,0,0-10.226-5.043,13.43,13.43,0,0,1,5.782-9.09c.078-.054.165-.1.246-.15a13.235,13.235,0,0,1,2.1-1.1c.063-.027.13-.045.192-.069a13.248,13.248,0,0,1,2.334-.69c.02,0,.04,0,.06-.009a13.505,13.505,0,0,1,5.012,0c.031.007.063.009.094.013a13.542,13.542,0,0,1,2.24.663c.109.042.223.078.333.125a13.345,13.345,0,0,1,4.317,2.879l3.158-3.158a17.824,17.824,0,0,0-3.357-2.615,15.675,15.675,0,0,1,13.049-7.089A15.434,15.434,0,0,1,65.44,55.35a20.506,20.506,0,0,0-1.872,2.314l3.687,2.521a15.655,15.655,0,0,1,3.066-3.334c.025-.018.051-.022.076-.042a15.91,15.91,0,0,1,2.169-1.463c.022-.011.042-.025.063-.036a15.4,15.4,0,0,1,2.155-.974c.15-.056.3-.107.456-.156a15.2,15.2,0,0,1,2.162-.558c.125-.022.25-.033.375-.054a15.847,15.847,0,0,1,2.378-.2h.016a15.372,15.372,0,0,1,2.182.159l.083.013a15.75,15.75,0,0,1,10.789,6.912,17.733,17.733,0,0,0-3.357,2.615l3.158,3.158a13.285,13.285,0,0,1,4.317-2.879c.109-.047.221-.08.331-.125a13.479,13.479,0,0,1,2.24-.663c.031-.007.063-.009.094-.013a13.505,13.505,0,0,1,5.012,0c.02,0,.04,0,.06.009a13.361,13.361,0,0,1,2.334.69c.063.025.13.045.192.071a13.311,13.311,0,0,1,2.095,1.1c.08.051.165.1.246.15a13.615,13.615,0,0,1,1.93,1.575A13.35,13.35,0,0,1,115.9,75.7a2.233,2.233,0,0,0,2.233,2.233A13.413,13.413,0,0,1,131.533,91.333Z" transform="translate(-2 -2)"/>
  <rect id="Rectangle_447" data-name="Rectangle 447" class="cls-1" width="5" height="5" transform="translate(22.449 87)"/>
  <rect id="Rectangle_448" data-name="Rectangle 448" class="cls-1" width="5" height="5" transform="translate(31.449 87)"/>
  <rect id="Rectangle_449" data-name="Rectangle 449" class="cls-1" width="5" height="5" transform="translate(40.449 87)"/>
</svg>
