<svg id="Red_Arrow" data-name="Red Arrow" xmlns="http://www.w3.org/2000/svg" width="32" height="27.294" viewBox="0 0 32 27.294">
  <path id="Exclusion_5" data-name="Exclusion 5" d="M16,27.294a1.882,1.882,0,1,1,1.883-1.882A1.884,1.884,0,0,1,16,27.294Zm4.706-4.706a1.882,1.882,0,1,1,1.883-1.882A1.884,1.884,0,0,1,20.706,22.588Zm-4.706,0a1.882,1.882,0,1,1,1.883-1.882A1.884,1.884,0,0,1,16,22.588Zm-4.706,0a1.882,1.882,0,1,1,1.883-1.882A1.884,1.884,0,0,1,11.294,22.588Zm14.118-4.706A1.882,1.882,0,1,1,27.294,16,1.884,1.884,0,0,1,25.412,17.882Zm-4.706,0A1.882,1.882,0,1,1,22.588,16,1.884,1.884,0,0,1,20.706,17.882Zm-4.706,0A1.882,1.882,0,1,1,17.882,16,1.884,1.884,0,0,1,16,17.882Zm-4.706,0A1.882,1.882,0,1,1,13.177,16,1.884,1.884,0,0,1,11.294,17.882Zm-4.706,0A1.882,1.882,0,1,1,8.471,16,1.884,1.884,0,0,1,6.588,17.882Zm23.53-4.706A1.882,1.882,0,1,1,32,11.294,1.884,1.884,0,0,1,30.118,13.177Zm-4.706,0a1.882,1.882,0,1,1,1.882-1.882A1.884,1.884,0,0,1,25.412,13.177Zm-4.706,0a1.882,1.882,0,1,1,1.883-1.882A1.884,1.884,0,0,1,20.706,13.177Zm-9.412,0a1.882,1.882,0,1,1,1.883-1.882A1.884,1.884,0,0,1,11.294,13.177Zm-4.706,0a1.882,1.882,0,1,1,1.883-1.882A1.884,1.884,0,0,1,6.588,13.177Zm-4.706,0a1.882,1.882,0,1,1,1.882-1.882A1.884,1.884,0,0,1,1.882,13.177ZM30.118,8.471A1.882,1.882,0,1,1,32,6.588,1.884,1.884,0,0,1,30.118,8.471Zm-4.706,0a1.882,1.882,0,1,1,1.882-1.882A1.884,1.884,0,0,1,25.412,8.471Zm-18.824,0A1.882,1.882,0,1,1,8.471,6.588,1.884,1.884,0,0,1,6.588,8.471Zm-4.706,0A1.882,1.882,0,1,1,3.764,6.588,1.884,1.884,0,0,1,1.882,8.471ZM30.118,3.765A1.882,1.882,0,1,1,32,1.882,1.885,1.885,0,0,1,30.118,3.765Zm-28.236,0A1.882,1.882,0,1,1,3.764,1.882,1.885,1.885,0,0,1,1.882,3.765Z" fill="#e84033"/>
</svg>
