<svg id="Component" xmlns="http://www.w3.org/2000/svg" width="272" height="43" viewBox="0 0 272 43">
  <g id="Rectangle_446" data-name="Rectangle 446" fill="#ebedea" stroke="#878a86" stroke-width="2">
    <rect width="272" height="43" rx="21.5" stroke="none"/>
    <rect x="1" y="1" width="270" height="41" rx="20.5" fill="none"/>
  </g>
  <rect id="Rectangle_435" data-name="Rectangle 435" width="7" height="33" rx="2" transform="translate(22 5)" fill="#d3d8d1"/>
  <rect id="Rectangle_435-2" data-name="Rectangle 435" width="7" height="33" rx="2" transform="translate(33 5)" fill="#d3d8d1"/>
  <rect id="Rectangle_435-3" data-name="Rectangle 435" width="7" height="33" rx="2" transform="translate(44 5)" fill="#d3d8d1"/>
  <rect id="Rectangle_435-4" data-name="Rectangle 435" width="7" height="33" rx="2" transform="translate(55 5)" fill="#d3d8d1"/>
  <rect id="Rectangle_435-5" data-name="Rectangle 435" width="7" height="33" rx="2" transform="translate(66 5)" fill="#d3d8d1"/>
  <rect id="Rectangle_435-6" data-name="Rectangle 435" width="7" height="33" rx="2" transform="translate(77 5)" fill="#d3d8d1"/>
  <rect id="Rectangle_435-7" data-name="Rectangle 435" width="7" height="33" rx="2" transform="translate(88 5)" fill="#d3d8d1"/>
  <rect id="Rectangle_435-8" data-name="Rectangle 435" width="7" height="33" rx="2" transform="translate(99 5)" fill="#d3d8d1"/>
  <rect id="Rectangle_435-9" data-name="Rectangle 435" width="7" height="33" rx="2" transform="translate(110 5)" fill="#d3d8d1"/>
  <rect id="Rectangle_435-10" data-name="Rectangle 435" width="7" height="33" rx="2" transform="translate(121 5)" fill="#d3d8d1"/>
  <rect id="Rectangle_435-11" data-name="Rectangle 435" width="7" height="33" rx="2" transform="translate(132 5)" fill="#878a86"/>
  <rect id="Rectangle_435-12" data-name="Rectangle 435" width="7" height="33" rx="2" transform="translate(143 5)" fill="#d3d8d1"/>
  <rect id="Rectangle_435-13" data-name="Rectangle 435" width="7" height="33" rx="2" transform="translate(154 5)" fill="#d3d8d1"/>
  <rect id="Rectangle_435-14" data-name="Rectangle 435" width="7" height="33" rx="2" transform="translate(165 5)" fill="#d3d8d1"/>
  <rect id="Rectangle_435-15" data-name="Rectangle 435" width="7" height="33" rx="2" transform="translate(176 5)" fill="#d3d8d1"/>
  <rect id="Rectangle_435-16" data-name="Rectangle 435" width="7" height="33" rx="2" transform="translate(187 5)" fill="#d3d8d1"/>
  <rect id="Rectangle_435-17" data-name="Rectangle 435" width="7" height="33" rx="2" transform="translate(198 5)" fill="#d3d8d1"/>
  <rect id="Rectangle_435-18" data-name="Rectangle 435" width="7" height="33" rx="2" transform="translate(209 5)" fill="#d3d8d1"/>
  <rect id="Rectangle_435-19" data-name="Rectangle 435" width="7" height="33" rx="2" transform="translate(220 5)" fill="#d3d8d1"/>
  <rect id="Rectangle_435-20" data-name="Rectangle 435" width="7" height="33" rx="2" transform="translate(231 5)" fill="#d3d8d1"/>
  <rect id="Rectangle_435-21" data-name="Rectangle 435" width="7" height="33" rx="2" transform="translate(242 5)" fill="#d3d8d1"/>
</svg>
