<svg id="noun_stock_data_analysis_2473375" data-name="noun_stock data analysis_2473375" xmlns="http://www.w3.org/2000/svg" width="154.358" height="134.22" viewBox="0 0 154.358 134.22">
  <defs>
    <style>
      .cls-1 {
        fill: #f2b825;
      }
    </style>
  </defs>
  <g id="Group_328" data-name="Group 328">
    <path id="Path_324" data-name="Path 324" class="cls-1" d="M142.665,4.131a12.707,12.707,0,0,0-12.694,12.694,12.536,12.536,0,0,0,1.687,6.2l-19.2,16.8A42.05,42.05,0,0,0,58.464,35.6a12.827,12.827,0,0,0,.644-3.917,12.693,12.693,0,1,0-22.672,7.8L18.672,62.232a12.566,12.566,0,0,0-5-1.084A12.693,12.693,0,1,0,26.386,73.86a12.542,12.542,0,0,0-2.631-7.686L41.549,43.386a12,12,0,0,0,8.192.525A41.072,41.072,0,0,0,43.327,55.36a42.215,42.215,0,0,0,57.959,52.628l24.658,24.658c6.128,6.128,15.992,8.014,21.815,2.187,5.5-5.5,4.558-15.1-2.154-21.85L120.92,88.3a41.927,41.927,0,0,0-4.208-43.648l19.424-17a12.563,12.563,0,0,0,6.528,1.864,12.693,12.693,0,1,0,0-25.386ZM13.673,80.1a6.261,6.261,0,0,1,0-12.522,6.261,6.261,0,1,1,0,12.522Zm26.48-48.421a6.261,6.261,0,0,1,12.522,0,6.1,6.1,0,0,1-1.536,4.1C47.721,39.914,40.153,37.768,40.153,31.681Zm103.058,98.6c-3.171,3.171-9.151,1.382-12.72-2.187l-23.442-23.442A42.507,42.507,0,0,0,117.621,94.1l23.428,23.428C145.152,121.651,146.121,127.376,143.211,130.285ZM108.239,95.314A35.794,35.794,0,0,1,57.649,44.665c.506-.5,1.008-.978,1.545-1.456,15.526-13.882,39.173-10.875,50.661,3.2A35.815,35.815,0,0,1,108.239,95.314Zm34.425-72.228a6.261,6.261,0,1,1,6.262-6.26A6.3,6.3,0,0,1,142.665,23.085Z" transform="translate(-1 -4.131)"/>
  </g>
</svg>
