<svg id="User" xmlns="http://www.w3.org/2000/svg" width="32" height="30.658" viewBox="0 0 32 30.658">
  <defs>
    <style>
      .cls-1 {
        fill: #545871;
      }
    </style>
  </defs>
  <path id="Path_54" data-name="Path 54" class="cls-1" d="M63.744,87.191c-3.689,0-7.377-.031-11.058.015a4.432,4.432,0,0,1-3.435-7.677,19.358,19.358,0,0,1,8.23-4.887c2.375-.83,2.5-1.191.991-3.112A10.138,10.138,0,0,1,56.52,62,7.356,7.356,0,0,1,64.6,56.606a7.609,7.609,0,0,1,6.862,7.439,10.547,10.547,0,0,1-2.605,7.792c-1.168,1.406-.93,1.929.722,2.659a74.378,74.378,0,0,1,6.962,3.473,8.439,8.439,0,0,1,2.359,2.367,4,4,0,0,1,.284,4.618,4.193,4.193,0,0,1-3.919,2.236C71.428,87.176,67.586,87.183,63.744,87.191Z" transform="translate(-47.79 -56.549)"/>
</svg>
